Coordinates
version=1
nRows=9
nColumns=36
inDegrees=yes

Units are S.I. units (second, meters, Newtons, ...)
If the header above contains a line with 'inDegrees', this indicates whether rotational values are in degrees (yes) or radians (no).

endheader
time	pelvis_tilt	pelvis_list	pelvis_rotation	pelvis_tx	pelvis_ty	pelvis_tz	hip_flexion_r	hip_adduction_r	hip_rotation_r	knee_angle_r	knee_angle_r_beta	ankle_angle_r	subtalar_angle_r	mtp_angle_r	hip_flexion_l	hip_adduction_l	hip_rotation_l	knee_angle_l	knee_angle_l_beta	ankle_angle_l	subtalar_angle_l	mtp_angle_l	lumbar_extension	lumbar_bending	lumbar_rotation	arm_flex_r	arm_add_r	arm_rot_r	elbow_flex_r	pro_sup_r	arm_flex_l	arm_add_l	arm_rot_l	elbow_flex_l	pro_sup_l
      1.39583330	     -6.87557273	     -0.90260831	      0.79561677	     -0.97104817	      1.23936121	     -0.06525923	      8.64671660	      0.76857008	     -2.64223215	     11.25945150	      0.19651450	      8.83613050	    -14.13529674	     -7.49999987	      9.09255416	     -1.91379096	     -0.39014491	     11.84318604	      0.20670259	     10.62818546	     -6.83836670	     -7.49999987	    -21.56683057	      1.66553873	      0.17642126	      2.02006733	    -18.54848304	     10.76966104	     33.49876940	     67.88861348	      1.95539723	    -18.64082720	     33.96853627	     30.60184734	     60.36480591
      1.40000000	     -7.18607353	     -0.89022589	      0.82094144	     -0.97138852	      1.23755673	     -0.06452840	      9.29237498	      0.75974141	     -2.39368957	     11.74965428	      0.20507015	      8.92686998	    -14.53567554	     -7.49999987	      9.68431719	     -1.91375560	     -0.32397247	     12.33601489	      0.21530408	     10.75218830	     -7.17833531	     -7.49999987	    -21.57426791	      1.63197307	      0.15752367	      2.16708896	    -18.58313496	     11.34800958	     33.31034378	     67.70346777	      2.10909117	    -18.65294295	     34.33858810	     30.32404708	     60.20677949
      1.40416670	     -7.32170496	     -0.87419211	      0.85132151	     -0.97212082	      1.23787325	     -0.06407175	      9.69688478	      0.73677323	     -2.38492285	     12.14816454	      0.21202547	      9.20907128	    -14.52680057	     -7.49999987	     10.09988054	     -1.91345671	     -0.32959915	     12.87540658	      0.22471824	     10.89181757	     -7.35654288	     -7.49999987	    -21.98688686	      1.59665488	      0.21940200	      2.22635176	    -18.61816553	     11.37799916	     33.65448937	     67.37240759	      2.24547474	    -18.72296893	     34.24234615	     30.62252241	     60.12357394
      1.40833330	     -7.54228666	     -0.88184015	      0.86516555	     -0.97320216	      1.23665455	     -0.06378429	     10.23942492	      0.75846999	     -2.18480420	     12.54707102	      0.21898770	      9.39884908	    -14.70190603	     -7.49999987	     10.67939877	     -1.94550510	     -0.24523138	     13.48038018	      0.23527702	     10.91224991	     -7.79898178	     -7.49999987	    -22.28583135	      1.59481484	      0.26372138	      2.42435919	    -18.60717725	     11.47064083	     33.77149114	     66.75121390	      2.43551466	    -18.72764645	     34.17437578	     30.65421678	     59.98621168
      1.41250000	     -8.10981548	     -0.89632473	      0.98947470	     -0.97438263	      1.23361145	     -0.06340002	     11.26018839	      0.75197576	     -2.18697650	     13.16779974	      0.22982146	     10.01047222	    -14.39150771	     -7.49999987	     11.81723691	     -1.98235625	     -0.14378132	     14.28456595	      0.24931271	     11.26241793	     -7.86680418	     -7.49999987	    -22.17237633	      1.67625180	      0.27708178	      2.22179944	    -18.77903597	     11.50731489	     34.61879201	     66.42990947	      2.39975445	    -19.06291722	     34.12066589	     31.58229239	     59.95461179
      1.41666670	     -8.06635970	     -0.90555692	      1.00815244	     -0.97299518	      1.23534886	     -0.06198277	     11.45756497	      0.83629880	     -1.83888200	     13.53775587	      0.23627841	      9.46210966	    -15.32427767	     -7.49999987	     12.11798827	     -2.03950901	     -0.01308705	     14.83986670	      0.25900453	     10.89546447	     -8.50466153	     -7.49999987	    -22.85026510	      1.66408093	      0.29005966	      2.63712896	    -18.67535357	     11.61909725	     34.25066492	     66.20253038	      2.88579872	    -19.01467784	     34.10749835	     31.07345345	     59.92417193
      1.42083330	     -8.30678686	     -0.89456975	      1.01889933	     -0.97261689	      1.23636131	     -0.06323802	     11.96899851	      0.83132673	     -1.82592112	     14.06398834	      0.24546290	      9.50497990	    -15.46515785	     -7.49999987	     12.71696940	     -2.04369518	      0.06376451	     15.39910649	      0.26876511	     10.85851019	     -8.64017421	     -7.49999987	    -23.10944090	      1.69673905	      0.24924493	      2.84427638	    -18.67103272	     11.77685395	     34.27263073	     66.14731411	      3.10754536	    -19.01173346	     34.22331201	     31.07061090	     59.91830674
      1.42500000	     -8.52599957	     -0.87562194	      1.02886259	     -0.97197437	      1.23526838	     -0.06272392	     12.40263380	      0.82290514	     -1.73586412	     14.52494822	      0.25350817	      9.54614034	    -15.72844410	     -7.49999987	     13.22203932	     -2.02048641	      0.17489097	     15.83321674	      0.27634176	     10.91187420	     -8.62667738	     -7.49999987	    -23.34892273	      1.71676483	      0.23581356	      2.96589597	    -18.68046443	     11.93977461	     34.32580521	     66.09748738	      3.31164643	    -19.03625056	     34.34871551	     31.06565420	     59.90582008
      1.42916670	     -8.77162686	     -0.88004618	      1.02451783	     -0.97118267	      1.23637160	     -0.06187883	     12.83365743	      0.84784580	     -1.78459243	     14.98807204	      0.26159121	      9.69904218	    -15.72765078	     -7.49999987	     13.65853614	     -2.04747112	      0.20065346	     16.13693129	      0.28164258	     10.94249021	     -8.47504450	     -7.49999987	    -23.49499002	      1.74263049	      0.21062529	      3.33440363	    -18.69097590	     12.67812205	     33.85420093	     67.18877364	      3.71156610	    -19.04173440	     35.35455434	     30.59360859	     59.85003751
